<?xml version="1.0" encoding="utf-8"?>
<!-- Generator: Adobe Illustrator 16.0.3, SVG Export Plug-In . SVG Version: 6.00 Build 0)  -->
<!DOCTYPE svg PUBLIC "-//W3C//DTD SVG 1.1//EN" "http://www.w3.org/Graphics/SVG/1.1/DTD/svg11.dtd">
<svg version="1.1" id="Warstwa_1" xmlns="http://www.w3.org/2000/svg" xmlns:xlink="http://www.w3.org/1999/xlink" x="0px" y="0px"
	 width="272.34px" height="65.426px" viewBox="0 0 272.34 65.426" enable-background="new 0 0 272.34 65.426" xml:space="preserve">
<g>
	<path fill="#009DE2" d="M133.005,36.911V12.853h7.599c2.879,0,4.756,0.121,5.629,0.361c1.345,0.361,2.47,1.146,3.375,2.355
		c0.906,1.209,1.359,2.771,1.359,4.685c0,1.477-0.261,2.719-0.783,3.725c-0.521,1.007-1.187,1.797-1.99,2.372
		c-0.807,0.574-1.625,0.955-2.457,1.14c-1.129,0.23-2.766,0.345-4.909,0.345h-3.087v9.075H133.005z M137.74,16.923v6.827h2.591
		c1.866,0,3.114-0.126,3.743-0.377c0.629-0.252,1.121-0.646,1.479-1.182c0.357-0.536,0.536-1.16,0.536-1.871
		c0-0.875-0.251-1.597-0.752-2.166c-0.501-0.569-1.136-0.924-1.903-1.067c-0.564-0.109-1.701-0.164-3.406-0.164H137.74z"/>
	<path fill="#009DE2" d="M153.896,25.03c0-2.451,0.355-4.507,1.07-6.17c0.533-1.225,1.262-2.325,2.184-3.298
		c0.923-0.974,1.934-1.696,3.031-2.167c1.461-0.634,3.146-0.952,5.055-0.952c3.455,0,6.22,1.1,8.293,3.298
		c2.074,2.199,3.111,5.257,3.111,9.174c0,3.884-1.029,6.923-3.086,9.116c-2.06,2.193-4.811,3.289-8.255,3.289
		c-3.485,0-6.26-1.09-8.317-3.272C154.924,31.865,153.896,28.859,153.896,25.03z M158.773,24.866c0,2.724,0.612,4.79,1.84,6.195
		c1.227,1.406,2.783,2.109,4.671,2.109s3.437-0.697,4.646-2.092s1.815-3.487,1.815-6.277c0-2.757-0.589-4.814-1.769-6.17
		c-1.179-1.356-2.742-2.035-4.693-2.035s-3.524,0.687-4.719,2.06C159.369,20.029,158.773,22.098,158.773,24.866z"/>
</g>
<g>
	<path fill="#009DE2" d="M180.465,36.911V13.05h4.734v19.808h11.771v4.053H180.465z"/>
</g>
<g>
	<path fill="#009DE2" d="M221.491,36.911h-5.15l-2.048-5.465h-9.373l-1.936,5.465h-5.022l9.134-24.058h5.006L221.491,36.911z
		 M212.773,27.393l-3.23-8.927l-3.167,8.927H212.773z"/>
</g>
<g>
	<path fill="#009DE2" d="M224.052,36.911V12.853h4.606l9.597,16.066V12.853h4.399v24.058h-4.752l-9.452-15.688v15.688H224.052z"/>
</g>
<g>
	<path fill="#009DE2" d="M247.645,12.853h8.653c1.952,0,3.438,0.153,4.463,0.459c1.376,0.416,2.554,1.155,3.535,2.216
		s1.728,2.36,2.239,3.897c0.511,1.537,0.768,3.433,0.768,5.686c0,1.98-0.238,3.687-0.72,5.12c-0.586,1.75-1.424,3.167-2.511,4.25
		c-0.821,0.82-1.932,1.461-3.327,1.92c-1.045,0.34-2.442,0.51-4.19,0.51h-8.91V12.853z M252.379,16.923v15.935h3.535
		c1.322,0,2.275-0.077,2.863-0.23c0.768-0.197,1.404-0.53,1.91-1.001c0.508-0.47,0.92-1.245,1.24-2.322
		c0.319-1.077,0.479-2.546,0.479-4.406s-0.16-3.288-0.479-4.283c-0.32-0.995-0.768-1.772-1.344-2.33
		c-0.576-0.558-1.307-0.936-2.191-1.132c-0.66-0.153-1.957-0.23-3.887-0.23L252.379,16.923L252.379,16.923z"/>
</g>
<g>
	<path fill="#009DE2" d="M4.745,12.723h7.496l5.223,17.27l5.156-17.27h7.278L21.28,36.72h-7.771L4.745,12.723z"/>
</g>
<g>
	<path fill="#009DE2" d="M32.222,12.723h19.216v5.124h-12.03v3.814h11.159v4.895H39.408v4.73h12.378v5.435H32.222V12.723z"/>
</g>
<g>
	<path fill="#009DE2" d="M54.398,28.781l6.822-0.442c0.147,1.146,0.448,2.019,0.902,2.619c0.739,0.971,1.794,1.457,3.166,1.457
		c1.023,0,1.813-0.248,2.366-0.745c0.554-0.497,0.831-1.072,0.831-1.727c0-0.622-0.264-1.178-0.792-1.669
		c-0.528-0.491-1.751-0.955-3.672-1.392c-3.145-0.731-5.387-1.702-6.727-2.914c-1.351-1.211-2.026-2.755-2.026-4.632
		c0-1.233,0.345-2.398,1.037-3.495c0.691-1.097,1.73-1.959,3.118-2.586c1.388-0.627,3.29-0.941,5.707-0.941
		c2.965,0,5.226,0.57,6.782,1.71c1.557,1.141,2.482,2.955,2.778,5.443l-6.759,0.409c-0.179-1.08-0.557-1.866-1.131-2.357
		c-0.576-0.491-1.369-0.737-2.382-0.737c-0.834,0-1.462,0.183-1.884,0.548c-0.422,0.366-0.633,0.811-0.633,1.334
		c0,0.382,0.174,0.726,0.522,1.031c0.338,0.317,1.14,0.611,2.406,0.884c3.134,0.698,5.379,1.405,6.735,2.12
		c1.356,0.715,2.343,1.602,2.96,2.66c0.618,1.059,0.926,2.242,0.926,3.552c0,1.539-0.412,2.958-1.235,4.256
		c-0.823,1.299-1.973,2.284-3.451,2.955s-3.34,1.007-5.587,1.007c-3.947,0-6.68-0.786-8.199-2.357
		C55.459,33.201,54.599,31.204,54.398,28.781z"/>
</g>
<g>
	<path fill="#009DE2" d="M79.076,12.723h13.423c2.237,0,3.955,0.573,5.152,1.719c1.197,1.146,1.796,2.565,1.796,4.256
		c0,1.419-0.427,2.636-1.282,3.65c-0.57,0.677-1.403,1.211-2.501,1.604c1.667,0.415,2.894,1.126,3.68,2.136
		c0.786,1.01,1.18,2.278,1.18,3.806c0,1.244-0.28,2.363-0.839,3.355c-0.559,0.993-1.324,1.778-2.295,2.356
		c-0.602,0.36-1.509,0.623-2.723,0.787c-1.614,0.217-2.686,0.326-3.213,0.326H79.076V12.723z M86.31,22.135h3.118
		c1.118,0,1.896-0.199,2.335-0.597c0.438-0.398,0.657-0.974,0.657-1.727c0-0.698-0.219-1.244-0.657-1.637
		c-0.438-0.393-1.201-0.589-2.288-0.589H86.31V22.135z M86.31,31.563h3.656c1.235,0,2.105-0.227,2.612-0.679
		c0.507-0.452,0.76-1.061,0.76-1.825c0-0.709-0.251-1.279-0.752-1.71s-1.38-0.646-2.635-0.646H86.31V31.563z"/>
</g>
<g>
	<path fill="#009DE2" d="M103.373,24.738c0-3.917,1.055-6.968,3.166-9.15c2.111-2.182,5.049-3.274,8.817-3.274
		c3.862,0,6.838,1.072,8.927,3.217c2.089,2.144,3.134,5.148,3.134,9.011c0,2.805-0.457,5.105-1.369,6.9
		c-0.913,1.794-2.232,3.192-3.958,4.19c-1.725,0.999-3.875,1.498-6.45,1.498c-2.617,0-4.783-0.431-6.498-1.293
		c-1.715-0.862-3.105-2.228-4.171-4.092C103.905,29.877,103.373,27.542,103.373,24.738z M110.543,24.771
		c0,2.422,0.435,4.163,1.306,5.222c0.871,1.059,2.055,1.588,3.554,1.588c1.541,0,2.733-0.519,3.577-1.555
		c0.844-1.036,1.267-2.897,1.267-5.582c0-2.259-0.441-3.909-1.322-4.952c-0.881-1.042-2.076-1.563-3.585-1.563
		c-1.446,0-2.606,0.529-3.482,1.588C110.98,20.575,110.543,22.326,110.543,24.771z"/>
</g>
<g>
	<path fill="#868685" d="M7.076,46.761h2.518v9.009H7.076V46.761z"/>
</g>
<g>
	<path fill="#868685" d="M16.689,46.761h2.346l3.062,4.984v-4.984h2.369v9.009h-2.369l-3.045-4.945v4.945h-2.363V46.761z"/>
</g>
<g>
	<path fill="#868685" d="M30.972,52.789l2.39-0.166c0.052,0.432,0.157,0.758,0.316,0.982c0.259,0.364,0.628,0.547,1.109,0.547
		c0.358,0,0.635-0.092,0.829-0.278c0.194-0.187,0.291-0.401,0.291-0.647c0-0.233-0.092-0.442-0.277-0.627
		c-0.185-0.186-0.614-0.358-1.287-0.522c-1.102-0.274-1.888-0.64-2.357-1.095c-0.473-0.455-0.71-1.033-0.71-1.738
		c0-0.463,0.121-0.9,0.363-1.313c0.242-0.412,0.606-0.734,1.093-0.971c0.486-0.236,1.153-0.354,2-0.354
		c1.039,0,1.831,0.213,2.377,0.642c0.545,0.429,0.87,1.108,0.973,2.044l-2.368,0.152c-0.063-0.404-0.195-0.699-0.397-0.885
		c-0.201-0.185-0.479-0.275-0.834-0.275c-0.292,0-0.512,0.068-0.66,0.206c-0.148,0.137-0.222,0.304-0.222,0.5
		c0,0.144,0.061,0.272,0.183,0.388c0.118,0.118,0.399,0.229,0.843,0.332c1.098,0.262,1.885,0.527,2.36,0.795
		c0.475,0.27,0.821,0.602,1.037,0.999c0.216,0.397,0.324,0.843,0.324,1.333c0,0.578-0.144,1.11-0.433,1.6
		c-0.288,0.486-0.691,0.855-1.209,1.107s-1.17,0.378-1.958,0.378c-1.383,0-2.34-0.295-2.873-0.885
		C31.344,54.448,31.042,53.698,30.972,52.789z"/>
</g>
<g>
	<path fill="#868685" d="M44.318,46.761h7.638v2.226h-2.563v6.783H46.88v-6.783h-2.563L44.318,46.761L44.318,46.761z"/>
</g>
<g>
	<path fill="#868685" d="M62.598,54.282h-2.853l-0.396,1.487h-2.565l3.056-9.01h2.741l3.055,9.01h-2.631L62.598,54.282z
		 M62.076,52.334l-0.897-3.238l-0.888,3.238H62.076z"/>
</g>
<g>
	<path fill="#868685" d="M71.71,46.761h2.513v6.79h3.921v2.219H71.71V46.761z"/>
</g>
<g>
	<path fill="#868685" d="M89.561,54.282h-2.853l-0.396,1.487h-2.565l3.056-9.01h2.741l3.055,9.01h-2.631L89.561,54.282z
		 M89.039,52.334l-0.897-3.238l-0.888,3.238H89.039z"/>
</g>
<g>
	<path fill="#868685" d="M103.883,52.082l2.202,0.738c-0.148,0.684-0.381,1.255-0.699,1.714c-0.318,0.459-0.713,0.806-1.184,1.039
		c-0.472,0.233-1.072,0.35-1.8,0.35c-0.884,0-1.606-0.142-2.166-0.427c-0.56-0.284-1.044-0.784-1.451-1.501
		c-0.407-0.718-0.61-1.634-0.61-2.751c0-1.49,0.358-2.637,1.073-3.438c0.715-0.8,1.728-1.199,3.037-1.199
		c1.024,0,1.83,0.229,2.416,0.688c0.586,0.458,1.021,1.163,1.306,2.113l-2.219,0.547c-0.078-0.273-0.159-0.475-0.244-0.602
		c-0.141-0.213-0.313-0.377-0.516-0.492c-0.203-0.114-0.431-0.172-0.682-0.172c-0.569,0-1.006,0.254-1.309,0.761
		c-0.229,0.377-0.344,0.968-0.344,1.774c0,0.998,0.137,1.683,0.411,2.053c0.273,0.369,0.658,0.556,1.153,0.556
		c0.481,0,0.844-0.149,1.09-0.448C103.594,53.086,103.772,52.652,103.883,52.082z"/>
</g>
<g>
	<path fill="#868685" d="M115.964,46.761h2.518v4.896c0,1.027-0.082,1.81-0.247,2.346s-0.496,0.991-0.993,1.363
		c-0.497,0.373-1.134,0.559-1.911,0.559c-0.821,0-1.457-0.123-1.908-0.367c-0.451-0.246-0.799-0.605-1.045-1.08
		c-0.246-0.473-0.391-1.058-0.435-1.754l2.401-0.361c0.004,0.396,0.035,0.691,0.094,0.885s0.159,0.348,0.3,0.467
		c0.096,0.078,0.233,0.117,0.41,0.117c0.281,0,0.487-0.116,0.619-0.348c0.131-0.23,0.197-0.621,0.197-1.17V46.761L115.964,46.761z"
		/>
</g>
<g>
	<path fill="#868685" d="M125.428,46.761h6.733v1.925h-4.215v1.432h3.91v1.837h-3.91v1.776h4.337v2.039h-6.855V46.761z"/>
</g>
<g>
	<path fill="#868685" d="M149.839,52.789l2.392-0.166c0.052,0.432,0.156,0.758,0.315,0.982c0.259,0.364,0.629,0.547,1.108,0.547
		c0.359,0,0.636-0.092,0.83-0.278c0.193-0.187,0.291-0.401,0.291-0.647c0-0.233-0.094-0.442-0.277-0.627
		c-0.184-0.186-0.613-0.358-1.287-0.522c-1.102-0.274-1.888-0.64-2.355-1.095c-0.475-0.455-0.711-1.033-0.711-1.738
		c0-0.463,0.121-0.9,0.363-1.313s0.606-0.734,1.094-0.971c0.484-0.236,1.151-0.354,1.998-0.354c1.039,0,1.832,0.213,2.377,0.642
		s0.869,1.108,0.975,2.044l-2.369,0.152c-0.063-0.404-0.193-0.699-0.396-0.885c-0.201-0.185-0.479-0.275-0.834-0.275
		c-0.293,0-0.513,0.068-0.66,0.206c-0.147,0.137-0.223,0.304-0.223,0.5c0,0.144,0.063,0.272,0.184,0.388
		c0.119,0.118,0.399,0.229,0.844,0.332c1.099,0.262,1.885,0.527,2.359,0.795c0.476,0.27,0.82,0.602,1.037,0.999
		s0.324,0.843,0.324,1.333c0,0.578-0.145,1.11-0.433,1.6c-0.288,0.486-0.691,0.855-1.209,1.107
		c-0.519,0.252-1.171,0.378-1.958,0.378c-1.383,0-2.342-0.295-2.873-0.885C150.212,54.448,149.909,53.698,149.839,52.789z"/>
</g>
<g>
	<path fill="#868685" d="M168.756,54.282h-2.854l-0.396,1.487h-2.565l3.058-9.01h2.74l3.056,9.01h-2.632L168.756,54.282z
		 M168.234,52.334l-0.897-3.238l-0.888,3.238H168.234z"/>
</g>
<g>
	<path fill="#868685" d="M177.885,46.761h2.346l3.063,4.984v-4.984h2.368v9.009h-2.368l-3.045-4.945v4.945h-2.363L177.885,46.761
		L177.885,46.761z"/>
</g>
<g>
	<path fill="#868685" d="M192.705,46.761h2.52v9.009h-2.52V46.761z"/>
</g>
<g>
	<path fill="#868685" d="M201.73,46.761h7.639v2.226h-2.563v6.783h-2.514v-6.783h-2.563V46.761L201.73,46.761z"/>
</g>
<g>
	<path fill="#868685" d="M220.01,54.282h-2.853l-0.396,1.487h-2.565l3.058-9.01h2.74l3.056,9.01h-2.632L220.01,54.282z
		 M219.488,52.334l-0.897-3.238l-0.888,3.238H219.488z"/>
</g>
<g>
	<path fill="#868685" d="M229.155,55.77v-9.009h4.188c0.776,0,1.37,0.074,1.78,0.222c0.411,0.147,0.741,0.422,0.993,0.82
		c0.251,0.399,0.377,0.887,0.377,1.459c0,0.5-0.097,0.932-0.288,1.295c-0.191,0.361-0.457,0.655-0.794,0.881
		c-0.216,0.145-0.509,0.263-0.884,0.356c0.301,0.11,0.519,0.222,0.654,0.332c0.094,0.073,0.228,0.231,0.402,0.474
		s0.293,0.43,0.352,0.561l1.217,2.609h-2.838l-1.344-2.752c-0.171-0.356-0.322-0.588-0.455-0.694
		c-0.182-0.14-0.387-0.209-0.615-0.209h-0.223v3.655H229.155z M231.68,50.411h1.06c0.114,0,0.337-0.041,0.666-0.123
		c0.165-0.037,0.302-0.131,0.407-0.282c0.104-0.152,0.157-0.326,0.157-0.521c0-0.291-0.083-0.516-0.25-0.67
		c-0.165-0.156-0.479-0.233-0.937-0.233h-1.104V50.411z"/>
</g>
<g>
	<path fill="#868685" d="M243.251,46.761h2.347l3.063,4.984v-4.984h2.367v9.009h-2.367l-3.045-4.945v4.945h-2.363L243.251,46.761
		L243.251,46.761z"/>
</g>
<g>
	<path fill="#868685" d="M257.965,46.761h6.733v1.925h-4.216v1.432h3.91v1.837h-3.91v1.776h4.338v2.039h-6.855V46.761z"/>
</g>
<g>
	<path fill="#FFFF18" stroke="#FFFF18" stroke-width="0.25" stroke-miterlimit="10" d="M133.005,23.9v13.011h4.735v-9.075h3.087
		c2.144,0,3.78-0.115,4.909-0.345c0.832-0.185,1.65-0.566,2.457-1.14c0.804-0.575,1.469-1.365,1.99-2.372
		c0.014-0.025,0.022-0.052,0.034-0.079H133.005z"/>
	<path fill="#FFFF18" stroke="#FFFF18" stroke-width="0.25" stroke-miterlimit="10" d="M95.664,23.952
		c0.044-0.016,0.084-0.034,0.125-0.052H79.076v12.818h12.378c0.527,0,1.599-0.109,3.213-0.326c1.214-0.164,2.121-0.427,2.723-0.787
		c0.971-0.578,1.736-1.363,2.295-2.356c0.559-0.992,0.839-2.111,0.839-3.355c0-1.528-0.394-2.796-1.18-3.806
		C98.558,25.078,97.331,24.367,95.664,23.952z M92.578,30.884c-0.507,0.452-1.377,0.679-2.612,0.679H86.31v-4.86h3.641
		c1.255,0,2.134,0.215,2.635,0.646s0.752,1.001,0.752,1.71C93.338,29.823,93.085,30.432,92.578,30.884z"/>
	<path fill="#FFFF18" stroke="#FFFF18" stroke-width="0.25" stroke-miterlimit="10" d="M73.315,23.9H57.226
		c0.022,0.022,0.044,0.046,0.068,0.067c1.34,1.212,3.582,2.183,6.727,2.914c1.921,0.437,3.144,0.901,3.672,1.392
		c0.528,0.491,0.792,1.047,0.792,1.669c0,0.655-0.277,1.23-0.831,1.727c-0.553,0.497-1.343,0.745-2.366,0.745
		c-1.372,0-2.427-0.486-3.166-1.457c-0.454-0.6-0.755-1.473-0.902-2.619l-6.822,0.442c0.201,2.423,1.061,4.42,2.58,5.99
		c1.519,1.571,4.252,2.357,8.199,2.357c2.247,0,4.109-0.336,5.587-1.007s2.628-1.656,3.451-2.955
		c0.823-1.298,1.235-2.717,1.235-4.256c0-1.31-0.308-2.493-0.926-3.552C74.215,24.829,73.809,24.344,73.315,23.9z"/>
	<polygon fill="#FFFF18" stroke="#FFFF18" stroke-width="0.25" stroke-miterlimit="10" points="19.283,23.9 17.464,29.993 
		15.622,23.9 8.827,23.9 13.509,36.72 21.28,36.72 25.884,23.9 	"/>
	<polygon fill="#FFFF18" stroke="#FFFF18" stroke-width="0.25" stroke-miterlimit="10" points="39.408,26.556 50.567,26.556 
		50.567,23.9 32.222,23.9 32.222,36.721 51.786,36.721 51.786,31.286 39.408,31.286 	"/>
	<path fill="#FFFF18" stroke="#FFFF18" stroke-width="0.25" stroke-miterlimit="10" d="M120.233,23.9
		c0.006,0.179,0.014,0.356,0.014,0.543c0,2.685-0.423,4.546-1.267,5.582c-0.844,1.036-2.036,1.555-3.577,1.555
		c-1.499,0-2.683-0.529-3.554-1.588c-0.871-1.059-1.306-2.8-1.306-5.222c0-0.301,0.007-0.59,0.021-0.871h-7.161
		c-0.012,0.277-0.029,0.55-0.029,0.837c0,2.804,0.532,5.139,1.598,7.007c1.066,1.864,2.456,3.229,4.171,4.092
		c1.715,0.862,3.881,1.293,6.498,1.293c2.575,0,4.725-0.499,6.45-1.498c1.726-0.998,3.045-2.396,3.958-4.19
		c0.912-1.795,1.369-4.095,1.369-6.9c0-0.22-0.015-0.428-0.022-0.642H120.233z"/>
	<polygon fill="#FFFF18" stroke="#FFFF18" stroke-width="0.25" stroke-miterlimit="10" points="238.255,23.9 238.255,28.919 
		235.258,23.9 230.063,23.9 237.902,36.911 242.654,36.911 242.654,23.9 	"/>
	<path fill="#FFFF18" stroke="#FFFF18" stroke-width="0.25" stroke-miterlimit="10" d="M262.385,23.9
		c0.011,0.322,0.022,0.645,0.022,0.999c0,1.86-0.16,3.329-0.479,4.406c-0.32,1.077-0.732,1.852-1.24,2.322
		c-0.506,0.471-1.143,0.804-1.91,1.001c-0.588,0.153-1.541,0.23-2.863,0.23h-3.535V23.9h-4.734v13.01h8.91
		c1.748,0,3.146-0.17,4.19-0.51c1.396-0.459,2.506-1.1,3.327-1.92c1.087-1.082,1.925-2.5,2.511-4.25
		c0.481-1.433,0.72-3.14,0.72-5.12c0-0.42-0.018-0.816-0.035-1.21H262.385z"/>
	
		<rect x="224.052" y="23.9" fill="#FFFF18" stroke="#FFFF18" stroke-width="0.25" stroke-miterlimit="10" width="4.398" height="13.011"/>
	<polygon fill="#FFFF18" stroke="#FFFF18" stroke-width="0.25" stroke-miterlimit="10" points="185.199,23.9 180.465,23.9 
		180.465,36.911 196.971,36.911 196.971,32.858 185.199,32.858 	"/>
	<polygon fill="#FFFF18" stroke="#FFFF18" stroke-width="0.25" stroke-miterlimit="10" points="211.51,23.9 212.773,27.393 
		206.376,27.393 207.615,23.9 202.901,23.9 197.962,36.911 202.984,36.911 204.92,31.446 214.293,31.446 216.341,36.911 
		221.491,36.911 216.413,23.9 	"/>
	<path fill="#FFFF18" stroke="#FFFF18" stroke-width="0.25" stroke-miterlimit="10" d="M171.721,23.9
		c0.015,0.292,0.024,0.591,0.024,0.9c0,2.79-0.606,4.882-1.815,6.277s-2.758,2.092-4.646,2.092s-3.444-0.703-4.671-2.109
		c-1.228-1.405-1.84-3.471-1.84-6.195c0-0.332,0.01-0.654,0.026-0.966h-4.86c-0.02,0.372-0.043,0.738-0.043,1.13
		c0,3.829,1.027,6.835,3.086,9.018c2.058,2.183,4.832,3.272,8.317,3.272c3.444,0,6.195-1.096,8.255-3.289
		c2.057-2.193,3.086-5.232,3.086-9.116c0-0.348-0.018-0.681-0.034-1.015H171.721z"/>
</g>
</svg>
